<?xml version="1.0" encoding="utf-8"?>
<!-- Generator: Adobe Illustrator 27.1.1, SVG Export Plug-In . SVG Version: 6.00 Build 0)  -->
<svg version="1.1" id="katman_1" xmlns="http://www.w3.org/2000/svg" xmlns:xlink="http://www.w3.org/1999/xlink" x="0px" y="0px"
	 viewBox="0 0 162.4 35" style="enable-background:new 0 0 162.4 35;" xml:space="preserve">
<style type="text/css">
	.st0{fill:#2D2D2D;}
	.st1{fill:#2A1D8A;}
	.st2{fill:#5167EB;}
</style>
<g>
	<g>
		<path class="st0" d="M46.7,22.3v-13h1.6V21h6v1.4H46.7z"/>
		<path class="st0" d="M56.5,11c-0.3,0-0.5-0.1-0.7-0.3c-0.2-0.2-0.3-0.4-0.3-0.7c0-0.3,0.1-0.5,0.3-0.7C55.9,9.1,56.2,9,56.5,9
			s0.5,0.1,0.7,0.3c0.2,0.2,0.3,0.4,0.3,0.7c0,0.3-0.1,0.5-0.3,0.7C57,10.9,56.7,11,56.5,11z M55.7,22.3v-9.7h1.5v9.7
			C57.2,22.3,55.7,22.3,55.7,22.3z"/>
		<path class="st0" d="M63.5,22.6c-0.6,0-1.1-0.1-1.5-0.3c-0.4-0.2-0.7-0.5-0.9-0.7c-0.2-0.3-0.4-0.5-0.5-0.7h-0.2v1.5h-1.4v-13h1.5
			v4.8h0.1c0.1-0.2,0.3-0.4,0.5-0.6s0.5-0.5,0.9-0.7c0.4-0.2,0.9-0.3,1.5-0.3c0.8,0,1.5,0.2,2.2,0.6c0.6,0.4,1.1,1,1.5,1.7
			c0.3,0.8,0.5,1.6,0.5,2.7c0,1-0.2,1.9-0.5,2.7s-0.8,1.3-1.5,1.7C65.1,22.3,64.3,22.6,63.5,22.6z M63.3,21.2c0.6,0,1.1-0.2,1.6-0.5
			c0.4-0.3,0.7-0.8,0.9-1.3c0.2-0.6,0.3-1.2,0.3-1.9c0-0.7-0.1-1.3-0.3-1.8c-0.2-0.5-0.5-1-0.9-1.3c-0.4-0.3-0.9-0.5-1.6-0.5
			c-0.6,0-1.1,0.1-1.5,0.5c-0.4,0.3-0.7,0.7-0.9,1.3c-0.2,0.5-0.3,1.2-0.3,1.9c0,0.7,0.1,1.4,0.3,1.9c0.2,0.6,0.5,1,0.9,1.3
			C62.2,21.1,62.7,21.2,63.3,21.2z"/>
		<path class="st0" d="M73.2,22.6c-0.9,0-1.7-0.2-2.4-0.6c-0.7-0.4-1.2-1-1.6-1.7c-0.4-0.8-0.5-1.6-0.5-2.6c0-1,0.2-1.9,0.5-2.6
			s0.9-1.4,1.5-1.8c0.7-0.4,1.4-0.6,2.3-0.6c0.5,0,1,0.1,1.5,0.2c0.5,0.2,1,0.4,1.4,0.8c0.4,0.4,0.7,0.9,1,1.5
			c0.2,0.6,0.4,1.4,0.4,2.3V18h-7.5v-1.3h6.7l-0.7,0.5c0-0.6-0.1-1.2-0.3-1.7c-0.2-0.5-0.5-0.9-0.9-1.2c-0.4-0.3-0.9-0.4-1.5-0.4
			s-1.1,0.1-1.5,0.4c-0.4,0.3-0.8,0.7-1,1.1c-0.2,0.5-0.3,1-0.3,1.5v0.9c0,0.7,0.1,1.4,0.4,1.9c0.3,0.5,0.6,0.9,1.1,1.2
			s1,0.4,1.6,0.4c0.4,0,0.7-0.1,1.1-0.2c0.3-0.1,0.6-0.3,0.8-0.5c0.2-0.2,0.4-0.5,0.5-0.8l1.4,0.4c-0.1,0.5-0.4,0.9-0.8,1.3
			c-0.4,0.4-0.8,0.7-1.3,0.9C74.4,22.5,73.8,22.6,73.2,22.6z"/>
		<path class="st0" d="M78.6,22.3v-9.7H80v1.5h0.1c0.2-0.5,0.5-0.9,1-1.2c0.5-0.3,1-0.4,1.6-0.4c0.1,0,0.2,0,0.4,0
			c0.2,0,0.3,0,0.4,0V14c0,0-0.2,0-0.3,0c-0.2,0-0.4,0-0.6,0c-0.5,0-0.9,0.1-1.3,0.3c-0.4,0.2-0.7,0.5-0.9,0.8
			c-0.2,0.3-0.3,0.7-0.3,1.2v6.1L78.6,22.3L78.6,22.3z"/>
		<path class="st0" d="M89.2,12.6v1.3h-5v-1.3H89.2z M85.6,10.3h1.5v9.3c0,0.5,0.1,0.9,0.3,1.1c0.2,0.2,0.5,0.3,1,0.3
			c0.1,0,0.2,0,0.3,0c0.1,0,0.2,0,0.3,0l0.3,1.3c-0.1,0-0.3,0.1-0.5,0.1s-0.4,0-0.6,0c-0.8,0-1.4-0.2-1.9-0.7
			c-0.5-0.5-0.7-1.1-0.7-1.8L85.6,10.3L85.6,10.3z"/>
		<path class="st0" d="M91.6,26c-0.3,0-0.5,0-0.7,0s-0.3-0.1-0.4-0.1l0.4-1.3l0.1,0c0.5,0.1,0.9,0.1,1.3-0.1
			c0.3-0.2,0.6-0.6,0.9-1.3l0.3-0.8l-3.6-9.8h1.6l2.7,7.8h0.1l2.7-7.8h1.6l-4.1,11.1c-0.2,0.5-0.4,0.9-0.7,1.3
			c-0.3,0.3-0.6,0.6-0.9,0.7C92.4,25.9,92,26,91.6,26z"/>
		<path class="st0" d="M104.1,22.3v-13h7.8v1.4h-6.2v4.5h5.6v1.4h-5.6v5.7H104.1z"/>
		<path class="st0" d="M114.2,11c-0.3,0-0.5-0.1-0.7-0.3s-0.3-0.4-0.3-0.7c0-0.3,0.1-0.5,0.3-0.7s0.5-0.3,0.7-0.3
			c0.3,0,0.5,0.1,0.7,0.3s0.3,0.4,0.3,0.7c0,0.3-0.1,0.5-0.3,0.7S114.5,11,114.2,11z M113.5,22.3v-9.7h1.5v9.7
			C115,22.3,113.5,22.3,113.5,22.3z"/>
		<path class="st0" d="M118.4,16.5v5.8h-1.5v-9.7h1.4v1.5h0.1c0.2-0.5,0.6-0.9,1-1.2c0.5-0.3,1.1-0.5,1.8-0.5c0.7,0,1.2,0.1,1.7,0.4
			s0.9,0.7,1.2,1.2c0.3,0.5,0.4,1.2,0.4,2.1v6.2h-1.5v-6.1c0-0.8-0.2-1.4-0.6-1.8c-0.4-0.4-0.9-0.6-1.6-0.6c-0.5,0-0.9,0.1-1.3,0.3
			s-0.7,0.5-0.9,0.9C118.5,15.4,118.4,15.9,118.4,16.5z"/>
		<path class="st0" d="M129.3,22.6c-0.6,0-1.2-0.1-1.7-0.3c-0.5-0.2-0.9-0.6-1.2-1c-0.3-0.4-0.4-1-0.4-1.6c0-0.6,0.1-1,0.3-1.4
			c0.2-0.3,0.5-0.6,0.9-0.8c0.4-0.2,0.8-0.3,1.2-0.4c0.4-0.1,0.9-0.2,1.3-0.2c0.6-0.1,1.1-0.1,1.4-0.2c0.4,0,0.6-0.1,0.8-0.2
			s0.3-0.3,0.3-0.5v0c0-0.6-0.2-1.1-0.5-1.5c-0.3-0.3-0.9-0.5-1.5-0.5c-0.7,0-1.3,0.2-1.7,0.5c-0.4,0.3-0.7,0.6-0.9,1l-1.4-0.5
			c0.3-0.6,0.6-1.1,1-1.4c0.4-0.3,0.9-0.6,1.4-0.7c0.5-0.1,1-0.2,1.5-0.2c0.3,0,0.7,0,1.1,0.1c0.4,0.1,0.8,0.2,1.2,0.5
			c0.4,0.2,0.7,0.6,1,1c0.2,0.5,0.4,1.1,0.4,1.8v6.4h-1.5V21h-0.1c-0.1,0.2-0.3,0.4-0.5,0.7c-0.2,0.2-0.6,0.4-0.9,0.6
			C130.4,22.5,129.9,22.6,129.3,22.6z M129.6,21.2c0.6,0,1.1-0.1,1.5-0.3c0.4-0.2,0.7-0.5,0.9-0.9c0.2-0.4,0.3-0.8,0.3-1.2v-1.4
			c-0.1,0.1-0.2,0.1-0.4,0.2c-0.2,0.1-0.5,0.1-0.7,0.2c-0.3,0-0.5,0.1-0.8,0.1c-0.3,0-0.5,0.1-0.6,0.1c-0.4,0-0.8,0.1-1.1,0.2
			c-0.3,0.1-0.6,0.3-0.8,0.5c-0.2,0.2-0.3,0.5-0.3,0.9c0,0.5,0.2,0.9,0.6,1.2C128.5,21.1,129,21.2,129.6,21.2z"/>
		<path class="st0" d="M137.2,16.5v5.8h-1.5v-9.7h1.4v1.5h0.1c0.2-0.5,0.6-0.9,1-1.2c0.5-0.3,1.1-0.5,1.8-0.5c0.7,0,1.2,0.1,1.7,0.4
			c0.5,0.3,0.9,0.7,1.2,1.2s0.4,1.2,0.4,2.1v6.2h-1.5v-6.1c0-0.8-0.2-1.4-0.6-1.8c-0.4-0.4-0.9-0.6-1.6-0.6c-0.5,0-0.9,0.1-1.3,0.3
			s-0.7,0.5-0.9,0.9C137.3,15.4,137.2,15.9,137.2,16.5z"/>
		<path class="st0" d="M149.2,22.6c-0.9,0-1.7-0.2-2.3-0.6c-0.7-0.4-1.2-1-1.5-1.8s-0.5-1.6-0.5-2.6c0-1,0.2-1.9,0.5-2.6
			s0.9-1.4,1.5-1.8c0.7-0.4,1.4-0.6,2.3-0.6c0.7,0,1.3,0.1,1.8,0.4c0.5,0.2,1,0.6,1.4,1.1c0.4,0.5,0.6,1,0.6,1.6h-1.5
			c-0.1-0.3-0.2-0.6-0.4-0.8c-0.2-0.3-0.5-0.5-0.8-0.6c-0.3-0.2-0.7-0.2-1.1-0.2c-0.6,0-1.1,0.1-1.5,0.5c-0.4,0.3-0.8,0.7-1,1.3
			c-0.2,0.5-0.4,1.2-0.4,1.9c0,0.7,0.1,1.4,0.4,2c0.2,0.6,0.6,1,1,1.3c0.4,0.3,1,0.5,1.5,0.5c0.6,0,1.1-0.1,1.5-0.5
			c0.4-0.3,0.7-0.7,0.8-1.3h1.5c-0.1,0.6-0.3,1.1-0.6,1.6c-0.3,0.5-0.8,0.8-1.3,1.1S150,22.6,149.2,22.6z"/>
		<path class="st0" d="M158.5,22.6c-0.9,0-1.7-0.2-2.4-0.6c-0.7-0.4-1.2-1-1.6-1.7c-0.4-0.8-0.5-1.6-0.5-2.6c0-1,0.2-1.9,0.5-2.6
			s0.9-1.4,1.5-1.8c0.7-0.4,1.4-0.6,2.3-0.6c0.5,0,1,0.1,1.5,0.2c0.5,0.2,1,0.4,1.4,0.8c0.4,0.4,0.7,0.9,1,1.5
			c0.2,0.6,0.4,1.4,0.4,2.3V18h-7.5v-1.3h6.7l-0.7,0.5c0-0.6-0.1-1.2-0.3-1.7c-0.2-0.5-0.5-0.9-0.9-1.2s-0.9-0.4-1.5-0.4
			s-1.1,0.1-1.5,0.4c-0.4,0.3-0.8,0.7-1,1.1c-0.2,0.5-0.3,1-0.3,1.5v0.9c0,0.7,0.1,1.4,0.4,1.9c0.3,0.5,0.6,0.9,1.1,1.2
			s1,0.4,1.6,0.4c0.4,0,0.7-0.1,1.1-0.2c0.3-0.1,0.6-0.3,0.8-0.5c0.2-0.2,0.4-0.5,0.5-0.8l1.4,0.4c-0.1,0.5-0.4,0.9-0.8,1.3
			c-0.4,0.4-0.8,0.7-1.3,0.9C159.8,22.5,159.2,22.6,158.5,22.6z"/>
	</g>
</g>
<g>
	<path class="st1" d="M10.6,1.1L0.1,11.9l5.6,5.7L21,1.9c0.5-0.5,0.1-1.4-0.6-1.4h-8.3C11.5,0.5,11,0.7,10.6,1.1z"/>
	<path class="st2" d="M13,27.1l-3.5,3.4c-0.5,0.5-1.4,0.5-2,0l-6.8-6.7c-0.4-0.4-0.6-0.9-0.6-1.5V11.9l13,13.1
		C13.6,25.6,13.6,26.6,13,27.1z"/>
	<path class="st2" d="M33.8,11.9l-7.4,7.8c-0.5,0.5-1.3,0.5-1.8,0l-6.8-6.9c-0.5-0.5-1.3-0.5-1.8,0l-3.8,3.8c-0.5,0.5-0.5,1.3,0,1.8
		l6.6,6.5c0.5,0.5,0.5,1.3,0,1.8l-5.4,5.4c-0.8,0.8-0.2,2.2,0.9,2.2H22c0.3,0,0.7-0.1,0.9-0.4l10.5-10.5c0.2-0.2,0.4-0.6,0.4-0.9
		V11.9z"/>
	<path class="st1" d="M20.8,8.1l3.7-3.6C25,4,25.9,4,26.4,4.5l7.4,7.3l-5.5,5.8L20.7,10C20.2,9.5,20.2,8.6,20.8,8.1z"/>
</g>
</svg>
